<?xml version="1.0" encoding="UTF-8" ?>
<!DOCTYPE svg PUBLIC "-//W3C//DTD SVG 1.1//EN" "http://www.w3.org/Graphics/SVG/1.1/DTD/svg11.dtd">
<svg width="1608pt" height="410pt" viewBox="0 0 1608 410" version="1.1" xmlns="http://www.w3.org/2000/svg">
<g id="#ffffffff">
</g>
<g id="#111111ff">
<path fill="#111111" opacity="1.00" d=" M 184.30 66.42 C 186.55 65.78 189.29 66.32 190.63 68.38 C 192.71 71.05 191.93 75.26 189.02 76.99 C 185.47 79.35 179.94 76.30 180.21 72.00 C 180.08 69.48 181.92 67.12 184.30 66.42 Z" />
<path fill="#111111" opacity="1.00" d=" M 356.23 67.48 C 360.29 67.31 363.41 72.06 361.64 75.72 C 360.03 79.80 353.77 80.30 351.46 76.59 C 348.76 73.04 351.84 67.38 356.23 67.48 Z" />
<path fill="#111111" opacity="1.00" d=" M 151.42 73.42 C 154.34 72.82 157.65 74.37 158.96 77.08 C 160.82 80.18 159.85 84.77 156.56 86.49 C 152.44 88.84 146.38 85.85 146.00 81.06 C 145.42 77.58 147.93 73.99 151.42 73.42 Z" />
<path fill="#111111" opacity="1.00" d=" M 390.39 78.50 C 394.35 77.31 399.11 80.70 398.79 84.98 C 399.37 90.75 391.50 94.58 387.21 90.77 C 382.88 87.34 385.06 79.54 390.39 78.50 Z" />
<path fill="#111111" opacity="1.00" d=" M 332.33 84.29 C 336.83 83.30 341.19 87.47 340.79 91.96 C 340.69 96.55 335.23 99.88 331.09 98.01 C 328.13 96.98 326.00 93.78 326.54 90.64 C 326.88 87.58 329.30 84.92 332.33 84.29 Z" />
<path fill="#111111" opacity="1.00" d=" M 205.39 85.53 C 208.37 83.89 212.41 84.79 214.37 87.58 C 215.91 89.48 216.19 92.15 215.48 94.44 C 214.12 97.94 209.82 100.06 206.28 98.58 C 203.53 97.71 201.66 95.07 201.49 92.23 C 201.56 89.54 203.01 86.85 205.39 85.53 Z" />
<path fill="#111111" opacity="1.00" d=" M 172.32 96.27 C 177.49 93.88 183.99 96.53 186.25 101.70 C 189.34 107.58 185.42 115.43 179.09 116.97 C 173.77 118.56 167.37 115.52 165.82 110.07 C 163.98 104.72 167.10 98.35 172.32 96.27 Z" />
<path fill="#111111" opacity="1.00" d=" M 361.35 98.42 C 366.21 96.48 372.29 98.45 374.96 102.98 C 377.56 106.68 377.38 112.04 374.44 115.49 C 371.68 119.08 366.51 120.69 362.24 119.04 C 358.73 117.71 355.82 114.61 355.08 110.88 C 353.88 105.99 356.53 100.22 361.35 98.42 Z" />
<path fill="#111111" opacity="1.00" d=" M 303.25 103.41 C 309.21 101.43 316.07 105.74 317.21 111.83 C 318.67 117.40 314.73 123.79 308.99 124.74 C 302.90 126.05 296.33 121.36 295.62 115.15 C 294.70 110.01 298.39 104.90 303.25 103.41 Z" />
<path fill="#111111" opacity="1.00" d=" M 234.33 104.55 C 240.45 104.43 246.14 110.07 245.37 116.30 C 244.90 122.33 239.03 127.15 233.03 126.53 C 227.36 126.28 222.89 120.61 223.47 115.07 C 223.68 109.44 228.74 104.66 234.33 104.55 Z" />
<path fill="#111111" opacity="1.00" d=" M 139.33 110.31 C 142.62 108.98 146.40 111.73 146.74 115.12 C 147.42 118.95 143.30 122.82 139.55 121.48 C 137.13 120.85 135.20 118.55 135.21 116.02 C 135.06 113.47 136.87 110.97 139.33 110.31 Z" />
<path fill="#111111" opacity="1.00" d=" M 400.22 112.48 C 404.25 112.42 407.23 117.03 405.62 120.70 C 404.07 124.47 398.38 125.39 395.78 122.20 C 392.57 118.72 395.42 112.31 400.22 112.48 Z" />
<path fill="#111111" opacity="1.00" d=" M 202.27 122.31 C 207.24 121.19 212.77 123.06 216.06 126.95 C 219.79 131.11 220.89 137.49 218.58 142.60 C 216.72 147.19 212.07 150.24 207.25 150.86 C 200.68 151.84 193.56 147.86 191.52 141.42 C 188.68 133.54 194.01 123.92 202.27 122.31 Z" />
<path fill="#111111" opacity="1.00" d=" M 332.47 123.43 C 336.93 122.62 341.76 123.81 345.16 126.85 C 350.41 131.11 351.72 139.34 348.08 145.03 C 344.28 151.44 335.24 154.17 328.66 150.51 C 322.42 147.39 319.71 139.37 321.96 132.92 C 323.37 128.15 327.56 124.31 332.47 123.43 Z" />
<path fill="#111111" opacity="1.00" d=" M 491.65 123.50 C 518.97 123.49 546.30 123.50 573.62 123.49 C 581.56 131.39 589.46 139.32 597.41 147.20 C 597.44 170.13 597.41 193.06 597.42 215.99 C 589.49 224.01 581.53 231.99 573.59 240.00 C 558.82 240.00 544.06 239.99 529.29 240.00 C 529.30 250.16 529.28 260.31 529.30 270.46 C 531.11 271.62 532.91 272.79 534.69 274.01 C 534.66 283.59 534.68 293.17 534.68 302.75 C 520.33 302.76 505.99 302.75 491.65 302.75 C 491.63 293.17 491.65 283.58 491.64 274.00 C 493.40 272.80 495.18 271.63 497.00 270.50 C 497.04 232.25 497.00 194.01 497.02 155.76 C 495.22 154.50 493.43 153.24 491.64 151.98 C 491.65 142.49 491.63 132.99 491.65 123.50 M 529.29 207.75 C 539.57 207.70 549.86 207.84 560.14 207.68 C 562.01 206.25 563.46 204.34 565.14 202.70 C 565.15 190.13 565.12 177.57 565.16 165.01 C 565.07 163.48 565.34 161.89 564.94 160.41 C 563.49 158.75 561.83 157.30 560.28 155.76 C 549.95 155.75 539.62 155.76 529.30 155.75 C 529.29 173.08 529.30 190.41 529.29 207.75 Z" />
<path fill="#111111" opacity="1.00" d=" M 630.98 123.50 C 653.68 123.50 676.39 123.49 699.10 123.50 C 699.10 133.00 699.09 142.49 699.10 151.99 C 697.31 153.25 695.51 154.50 693.72 155.74 C 701.50 194.00 709.21 232.27 717.05 270.51 C 718.86 271.63 720.64 272.81 722.41 274.01 C 722.39 283.59 722.41 293.17 722.40 302.75 C 711.81 302.75 701.22 302.76 690.63 302.75 C 688.00 289.58 685.35 276.42 682.72 263.26 C 670.93 263.24 659.14 263.25 647.36 263.25 C 644.69 276.41 642.06 289.58 639.42 302.75 C 628.83 302.77 618.25 302.75 607.66 302.75 C 607.64 293.17 607.67 283.58 607.65 274.00 C 609.41 272.80 611.19 271.63 613.01 270.51 C 620.82 232.27 628.57 194.01 636.34 155.75 C 634.54 154.50 632.75 153.25 630.96 151.99 C 630.98 142.49 630.95 132.99 630.98 123.50 M 654.02 231.00 C 661.36 231.00 668.70 231.00 676.04 231.00 C 672.36 212.76 668.70 194.52 665.03 176.28 C 661.34 194.52 657.70 212.76 654.02 231.00 Z" />
<path fill="#111111" opacity="1.00" d=" M 756.43 123.50 C 775.20 123.49 793.98 123.51 812.76 123.48 C 820.76 131.38 828.71 139.32 836.64 147.29 C 836.62 158.44 836.63 169.59 836.63 180.75 C 825.87 180.76 815.11 180.76 804.35 180.75 C 804.33 173.97 804.40 167.20 804.31 160.43 C 802.67 158.88 801.06 157.31 799.45 155.75 C 789.55 155.77 779.66 155.75 769.77 155.76 C 768.16 157.33 766.55 158.91 764.93 160.48 C 764.91 195.49 764.91 230.51 764.93 265.53 C 766.54 267.18 768.16 268.83 769.78 270.49 C 779.67 270.50 789.56 270.48 799.46 270.50 C 801.09 268.82 802.73 267.13 804.36 265.44 C 804.34 253.38 804.36 241.32 804.35 229.26 C 800.78 229.25 797.20 229.24 793.63 229.26 C 791.82 228.02 790.02 226.76 788.22 225.51 C 788.20 216.01 788.22 206.51 788.21 197.00 C 804.35 197.00 820.49 197.00 836.63 197.01 C 836.63 224.25 836.63 251.49 836.64 278.74 C 828.69 286.76 820.73 294.77 812.77 302.77 C 793.99 302.74 775.21 302.77 756.43 302.75 C 748.52 294.74 740.56 286.77 732.65 278.76 C 732.64 234.91 732.64 191.07 732.65 147.22 C 740.56 139.30 748.51 131.41 756.43 123.50 Z" />
<path fill="#111111" opacity="1.00" d=" M 851.99 123.50 C 883.07 123.49 914.14 123.49 945.22 123.50 C 945.22 136.00 945.22 148.50 945.21 161.00 C 935.64 161.00 926.07 161.01 916.50 160.99 C 915.30 159.25 914.11 157.50 912.93 155.75 C 905.17 155.76 897.41 155.75 889.65 155.76 C 889.64 169.51 889.65 183.25 889.65 197.00 C 903.39 197.00 917.13 196.99 930.88 197.00 C 930.87 207.75 930.89 218.50 930.87 229.25 C 917.13 229.25 903.39 229.25 889.65 229.25 C 889.65 243.00 889.64 256.75 889.65 270.50 C 897.40 270.50 905.16 270.49 912.92 270.50 C 914.10 268.67 915.29 266.84 916.48 265.01 C 926.06 264.98 935.63 265.00 945.21 265.00 C 945.23 277.59 945.22 290.17 945.21 302.75 C 914.14 302.76 883.07 302.75 852.00 302.76 C 851.98 293.17 852.00 283.58 851.99 273.99 C 853.75 272.79 855.53 271.61 857.35 270.49 C 857.39 232.25 857.36 194.00 857.36 155.76 C 855.57 154.50 853.77 153.25 851.99 151.99 C 851.99 142.50 851.98 133.00 851.99 123.50 Z" />
<path fill="#111111" opacity="1.00" d=" M 960.58 123.50 C 987.91 123.49 1015.24 123.50 1042.57 123.50 C 1050.49 131.40 1058.40 139.32 1066.34 147.20 C 1066.37 170.13 1066.34 193.06 1066.36 215.99 C 1058.43 224.00 1050.47 231.99 1042.53 240.00 C 1027.76 240.01 1013.00 239.99 998.23 240.00 C 998.24 250.16 998.22 260.31 998.24 270.46 C 1000.04 271.61 1001.84 272.79 1003.62 274.01 C 1003.60 283.59 1003.61 293.17 1003.61 302.75 C 989.27 302.76 974.93 302.75 960.58 302.75 C 960.56 293.17 960.59 283.59 960.57 274.00 C 962.33 272.80 964.12 271.62 965.95 270.49 C 965.97 232.25 965.95 194.00 965.95 155.76 C 964.16 154.50 962.37 153.24 960.58 152.00 C 960.58 142.50 960.57 133.00 960.58 123.50 M 998.24 155.76 C 998.23 173.09 998.24 190.42 998.23 207.75 C 1008.56 207.74 1018.88 207.75 1029.21 207.75 C 1030.82 206.07 1032.44 204.39 1034.07 202.72 C 1034.07 188.64 1034.10 174.55 1034.06 160.47 C 1032.43 158.91 1030.82 157.34 1029.22 155.76 C 1018.89 155.75 1008.56 155.76 998.24 155.76 Z" />
<path fill="#111111" opacity="1.00" d=" M 1364.47 123.50 C 1400.32 123.50 1436.17 123.50 1472.02 123.50 C 1472.05 136.00 1472.03 148.50 1472.04 161.00 C 1462.47 161.00 1452.90 161.00 1443.34 161.00 C 1442.13 159.24 1440.93 157.49 1439.72 155.74 C 1437.93 155.75 1436.14 155.75 1434.39 155.76 C 1434.39 193.99 1434.39 232.23 1434.40 270.46 C 1436.19 271.62 1438.00 272.80 1439.78 274.02 C 1439.75 283.60 1439.77 293.17 1439.77 302.76 C 1425.42 302.76 1411.08 302.76 1396.74 302.75 C 1396.72 293.17 1396.74 283.58 1396.73 274.00 C 1398.50 272.79 1400.29 271.61 1402.12 270.46 C 1402.10 232.23 1402.13 193.99 1402.10 155.76 C 1400.30 155.76 1398.51 155.75 1396.74 155.75 C 1395.53 157.50 1394.33 159.25 1393.14 161.00 C 1383.58 161.00 1374.02 161.00 1364.47 161.00 C 1364.46 148.50 1364.46 136.00 1364.47 123.50 Z" />
<path fill="#111111" opacity="1.00" d=" M 1081.72 123.50 C 1096.06 123.49 1110.40 123.50 1124.75 123.49 C 1124.76 132.99 1124.74 142.49 1124.76 151.99 C 1122.96 153.24 1121.17 154.49 1119.38 155.73 C 1119.37 193.98 1119.37 232.23 1119.38 270.48 C 1121.18 271.62 1122.98 272.79 1124.76 274.00 C 1124.74 283.59 1124.76 293.17 1124.75 302.75 C 1110.40 302.76 1096.06 302.76 1081.72 302.75 C 1081.70 293.17 1081.72 283.59 1081.71 274.00 C 1083.46 272.80 1085.24 271.63 1087.07 270.52 C 1087.12 232.26 1087.09 194.00 1087.08 155.74 C 1085.28 154.50 1083.49 153.24 1081.71 151.98 C 1081.72 142.49 1081.70 132.99 1081.72 123.50 Z" />
<path fill="#111111" opacity="1.00" d=" M 1140.11 123.50 C 1154.45 123.49 1168.80 123.49 1183.14 123.50 C 1183.14 133.00 1183.14 142.49 1183.14 151.99 C 1181.34 153.24 1179.55 154.49 1177.76 155.75 C 1177.76 194.00 1177.76 232.25 1177.76 270.49 C 1183.74 270.50 1189.71 270.49 1195.69 270.50 C 1196.87 268.66 1198.05 266.83 1199.25 265.00 C 1208.82 265.00 1218.39 265.00 1227.96 265.00 C 1227.95 277.59 1227.97 290.17 1227.96 302.75 C 1198.67 302.76 1169.39 302.76 1140.12 302.75 C 1140.09 293.17 1140.12 283.59 1140.10 274.01 C 1141.86 272.80 1143.64 271.63 1145.46 270.50 C 1145.52 232.25 1145.47 194.01 1145.49 155.76 C 1143.68 154.50 1141.88 153.25 1140.10 151.98 C 1140.12 142.49 1140.10 132.99 1140.11 123.50 Z" />
<path fill="#111111" opacity="1.00" d=" M 1243.31 147.28 C 1251.22 139.31 1259.20 131.41 1267.16 123.49 C 1286.53 123.51 1305.90 123.49 1325.28 123.50 C 1333.19 131.45 1341.17 139.35 1349.10 147.29 C 1349.11 191.11 1349.11 234.93 1349.10 278.74 C 1341.14 286.74 1333.20 294.75 1325.26 302.76 C 1305.89 302.75 1286.53 302.75 1267.17 302.77 C 1259.21 294.76 1251.24 286.76 1243.31 278.72 C 1243.33 234.91 1243.33 191.09 1243.31 147.28 M 1275.58 160.57 C 1275.62 195.53 1275.59 230.49 1275.59 265.45 C 1277.20 267.14 1278.82 268.82 1280.45 270.51 C 1290.94 270.48 1301.44 270.49 1311.94 270.50 C 1313.56 268.85 1315.18 267.19 1316.82 265.53 C 1316.83 230.51 1316.83 195.49 1316.81 160.47 C 1315.18 158.89 1313.56 157.31 1311.94 155.74 C 1301.45 155.76 1290.98 155.77 1280.50 155.74 C 1278.83 157.33 1277.19 158.94 1275.58 160.57 Z" />
<path fill="#111111" opacity="1.00" d=" M 267.33 129.58 C 271.96 128.63 277.03 130.22 280.29 133.65 C 285.26 138.53 286.07 147.14 281.73 152.68 C 277.65 158.28 269.38 159.81 263.33 156.70 C 259.12 154.70 256.14 150.41 255.68 145.78 C 254.68 138.46 260.04 130.95 267.33 129.58 Z" />
<path fill="#111111" opacity="1.00" d=" M 157.29 131.62 C 160.00 130.90 163.26 131.83 164.75 134.31 C 167.37 137.74 165.97 143.45 161.91 145.08 C 158.31 146.85 153.48 144.65 152.23 140.89 C 150.63 137.07 153.37 132.51 157.29 131.62 Z" />
<path fill="#111111" opacity="1.00" d=" M 377.33 134.43 C 381.12 132.89 386.00 135.04 387.14 139.01 C 388.42 142.81 385.76 147.11 381.93 148.02 C 377.97 149.29 373.52 146.03 373.24 141.96 C 372.71 138.90 374.61 135.77 377.33 134.43 Z" />
<path fill="#111111" opacity="1.00" d=" M 299.44 149.54 C 307.32 147.99 315.96 152.36 319.31 159.67 C 322.56 166.34 321.34 174.91 316.30 180.37 C 311.95 184.96 305.26 187.55 298.98 186.04 C 290.79 184.77 283.97 177.26 283.84 168.92 C 283.39 159.77 290.55 151.26 299.44 149.54 Z" />
<path fill="#111111" opacity="1.00" d=" M 231.38 151.41 C 236.81 150.17 242.59 151.67 246.92 155.11 C 251.72 158.81 254.38 165.00 254.04 171.02 C 253.73 177.56 249.60 183.87 243.57 186.51 C 237.09 189.53 228.67 188.66 223.41 183.64 C 219.48 180.23 216.89 175.20 216.79 169.97 C 216.43 161.38 222.94 153.08 231.38 151.41 Z" />
<path fill="#111111" opacity="1.00" d=" M 178.34 155.25 C 184.40 153.04 192.08 157.37 192.49 164.02 C 193.41 170.63 187.54 177.02 180.89 176.67 C 174.64 176.59 169.63 170.12 170.73 164.06 C 171.35 159.97 174.45 156.55 178.34 155.25 Z" />
<path fill="#111111" opacity="1.00" d=" M 352.38 156.48 C 358.99 153.72 367.19 158.92 367.53 166.07 C 368.17 172.37 362.32 178.44 355.97 177.74 C 349.90 177.29 344.88 171.33 345.68 165.25 C 345.89 161.30 348.74 157.86 352.38 156.48 Z" />
<path fill="#111111" opacity="1.00" d=" M 264.28 182.28 C 274.41 179.32 286.37 184.68 290.59 194.43 C 293.93 201.47 293.07 210.23 288.51 216.53 C 282.83 225.16 270.48 228.35 261.25 223.82 C 252.60 219.44 246.87 209.34 248.59 199.63 C 249.78 191.40 256.27 184.40 264.28 182.28 Z" />
<path fill="#111111" opacity="1.00" d=" M 203.32 190.42 C 208.12 188.92 213.75 190.09 217.35 193.66 C 221.96 198.03 223.06 205.49 220.12 211.08 C 217.57 216.61 210.99 219.74 205.07 218.54 C 197.82 217.50 191.97 210.37 192.81 203.00 C 193.29 197.15 197.72 192.02 203.32 190.42 Z" />
<path fill="#111111" opacity="1.00" d=" M 324.37 190.48 C 331.02 188.26 339.10 191.52 342.12 197.92 C 344.46 202.41 344.08 208.15 341.16 212.29 C 337.27 218.11 328.99 220.52 322.66 217.42 C 317.63 215.08 314.44 209.50 314.70 204.00 C 314.61 198.05 318.61 192.20 324.37 190.48 Z" />
<path fill="#111111" opacity="1.00" d=" M 227.35 216.47 C 236.49 213.54 246.71 219.39 249.77 228.26 C 253.42 237.33 248.07 248.63 238.90 251.81 C 229.25 255.60 216.98 249.66 214.52 239.44 C 211.54 229.88 217.94 219.22 227.35 216.47 Z" />
<path fill="#111111" opacity="1.00" d=" M 298.54 221.59 C 306.40 219.93 315.06 224.20 318.56 231.42 C 322.05 238.19 320.75 247.09 315.47 252.58 C 312.07 256.25 307.08 258.07 302.18 258.44 C 296.42 258.17 290.73 255.38 287.21 250.77 C 283.57 246.21 282.47 239.82 284.27 234.29 C 286.30 227.89 292.06 223.03 298.54 221.59 Z" />
<path fill="#111111" opacity="1.00" d=" M 176.34 227.44 C 180.54 225.40 185.87 226.56 189.02 229.94 C 192.55 233.42 193.24 239.38 190.55 243.55 C 188.21 247.20 183.52 249.03 179.30 248.18 C 174.09 247.33 169.97 242.21 170.21 236.96 C 170.27 232.97 172.86 229.26 176.34 227.44 Z" />
<path fill="#111111" opacity="1.00" d=" M 354.37 228.41 C 359.72 227.17 365.39 230.90 366.78 236.12 C 368.75 242.08 364.28 249.00 358.14 249.94 C 352.65 251.25 346.49 247.47 345.44 241.87 C 344.13 235.90 348.41 229.59 354.37 228.41 Z" />
<path fill="#111111" opacity="1.00" d=" M 262.39 251.41 C 266.63 250.61 271.24 251.54 274.65 254.25 C 279.17 257.64 281.03 264.01 279.36 269.36 C 277.69 275.91 270.96 280.84 264.17 280.03 C 256.63 279.57 250.45 272.31 250.97 264.81 C 250.94 258.37 256.07 252.47 262.39 251.41 Z" />
<path fill="#111111" opacity="1.00" d=" M 204.36 252.58 C 210.32 252.50 216.20 256.31 218.04 262.07 C 220.14 268.03 217.79 275.07 212.73 278.79 C 207.79 282.59 200.32 282.46 195.50 278.51 C 189.83 274.29 188.06 265.69 191.68 259.61 C 194.15 255.13 199.33 252.56 204.36 252.58 Z" />
<path fill="#111111" opacity="1.00" d=" M 332.38 253.50 C 341.55 251.94 350.71 260.67 349.08 269.95 C 348.01 278.85 337.63 284.73 329.36 281.50 C 322.84 279.21 319.04 271.77 320.46 265.09 C 321.40 259.20 326.40 254.15 332.38 253.50 Z" />
<path fill="#111111" opacity="1.00" d=" M 155.40 257.52 C 158.60 256.01 162.73 257.41 164.27 260.62 C 166.69 264.41 164.21 269.94 159.96 271.05 C 156.54 272.00 152.64 269.93 151.34 266.67 C 149.95 263.16 151.81 258.81 155.40 257.52 Z" />
<path fill="#111111" opacity="1.00" d=" M 377.38 258.44 C 381.59 257.22 386.36 260.56 386.54 264.97 C 386.89 269.52 382.17 273.43 377.78 272.39 C 373.65 271.62 371.01 266.54 372.77 262.74 C 373.58 260.73 375.23 258.97 377.38 258.44 Z" />
<path fill="#111111" opacity="1.00" d=" M 232.16 277.60 C 237.69 277.33 242.87 281.56 243.78 287.00 C 245.22 293.36 239.40 299.85 232.99 299.55 C 227.00 299.68 221.74 294.10 221.97 288.15 C 221.92 282.67 226.60 277.59 232.16 277.60 Z" />
<path fill="#111111" opacity="1.00" d=" M 139.33 280.51 C 142.05 280.22 144.63 282.38 145.19 284.99 C 146.36 288.66 142.81 292.86 138.97 292.18 C 136.12 291.80 133.64 289.23 133.76 286.30 C 133.70 283.25 136.40 280.77 139.33 280.51 Z" />
<path fill="#111111" opacity="1.00" d=" M 302.29 280.42 C 306.65 279.07 311.89 280.76 314.25 284.76 C 316.90 288.59 316.50 294.07 313.63 297.67 C 311.15 300.76 306.95 302.61 303.01 301.79 C 298.92 301.08 295.36 297.83 294.40 293.78 C 292.87 288.17 296.71 281.86 302.29 280.42 Z" />
<path fill="#111111" opacity="1.00" d=" M 396.32 283.18 C 399.16 281.92 403.02 283.13 404.23 286.11 C 405.89 289.64 402.98 294.35 399.03 294.28 C 395.27 294.71 392.21 290.58 393.13 287.06 C 393.43 285.30 394.89 284.07 396.32 283.18 Z" />
<path fill="#111111" opacity="1.00" d=" M 174.43 285.57 C 179.35 285.50 184.02 289.02 185.31 293.77 C 186.80 298.64 184.13 304.30 179.58 306.49 C 176.08 308.27 171.64 307.80 168.52 305.46 C 164.44 302.65 162.62 297.01 164.36 292.36 C 165.82 288.25 170.11 285.55 174.43 285.57 Z" />
<path fill="#111111" opacity="1.00" d=" M 360.25 287.27 C 365.86 284.76 373.00 288.28 374.76 294.08 C 376.13 298.33 374.36 303.19 370.91 305.92 C 367.02 309.16 360.79 309.39 356.93 305.99 C 354.05 303.36 352.55 299.16 353.48 295.33 C 354.21 291.74 356.91 288.68 360.25 287.27 Z" />
<path fill="#111111" opacity="1.00" d=" M 203.37 305.49 C 207.00 303.30 212.25 305.30 213.58 309.29 C 215.10 313.28 212.18 318.27 207.92 318.80 C 203.92 319.64 199.72 316.13 199.71 312.07 C 199.37 309.36 200.96 306.68 203.37 305.49 Z" />
<path fill="#111111" opacity="1.00" d=" M 329.29 307.41 C 333.57 305.61 339.20 309.26 338.84 314.01 C 338.94 318.08 335.11 321.82 331.00 321.25 C 327.13 320.99 324.28 317.08 324.52 313.36 C 324.85 310.67 326.71 308.28 329.29 307.41 Z" />
<path fill="#111111" opacity="1.00" d=" M 388.37 314.52 C 391.84 313.94 395.66 316.19 396.53 319.66 C 397.41 322.53 396.13 325.98 393.46 327.43 C 390.09 329.41 385.17 328.08 383.61 324.40 C 381.27 320.59 383.89 314.97 388.37 314.52 Z" />
<path fill="#111111" opacity="1.00" d=" M 149.34 315.40 C 151.86 314.82 154.85 315.42 156.35 317.70 C 159.40 321.30 157.23 327.48 152.82 328.78 C 149.29 330.15 144.73 327.83 143.98 324.06 C 142.87 320.31 145.61 316.21 149.34 315.40 Z" />
<path fill="#111111" opacity="1.00" d=" M 180.43 326.45 C 183.05 324.52 187.21 325.34 188.68 328.32 C 191.06 331.75 188.16 337.16 183.98 337.03 C 180.98 337.21 178.22 334.71 177.87 331.77 C 177.83 329.74 178.62 327.54 180.43 326.45 Z" />
<path fill="#111111" opacity="1.00" d=" M 351.35 327.42 C 353.88 325.93 357.23 327.02 358.89 329.31 C 360.43 331.62 360.01 335.00 357.91 336.84 C 355.69 339.19 351.50 338.87 349.57 336.31 C 347.16 333.67 347.98 328.86 351.35 327.42 Z" />
</g>
</svg>
