<?xml version="1.0" encoding="UTF-8" ?>
<!DOCTYPE svg PUBLIC "-//W3C//DTD SVG 1.1//EN" "http://www.w3.org/Graphics/SVG/1.1/DTD/svg11.dtd">
<svg width="1654pt" height="444pt" viewBox="0 0 1654 444" version="1.1" xmlns="http://www.w3.org/2000/svg">
<g id="#111111ff">
</g>
<g id="#ffffffff">
<path fill="#ffffff" opacity="1.00" d=" M 227.41 79.46 C 229.86 78.64 232.75 79.78 234.01 82.03 C 235.79 84.87 234.60 89.17 231.42 90.43 C 227.82 92.18 222.94 89.03 223.21 84.98 C 223.15 82.43 225.05 80.22 227.41 79.46 Z" />
<path fill="#ffffff" opacity="1.00" d=" M 397.15 81.18 C 400.80 79.27 405.50 82.32 405.53 86.36 C 405.85 89.79 402.35 92.66 399.06 92.26 C 396.95 92.14 395.18 90.57 394.22 88.78 C 393.03 86.00 394.47 82.48 397.15 81.18 Z" />
<path fill="#ffffff" opacity="1.00" d=" M 194.36 86.54 C 196.79 86.18 199.50 86.88 201.04 88.91 C 203.71 91.77 203.46 96.92 200.17 99.22 C 196.09 102.38 189.19 99.16 188.98 94.03 C 188.48 90.59 190.93 87.14 194.36 86.54 Z" />
<path fill="#ffffff" opacity="1.00" d=" M 434.40 91.51 C 437.97 90.84 441.80 93.46 442.20 97.13 C 442.97 100.70 440.30 104.32 436.86 105.17 C 433.94 106.07 430.46 104.74 429.09 101.96 C 426.72 97.89 429.83 92.12 434.40 91.51 Z" />
<path fill="#ffffff" opacity="1.00" d=" M 375.46 97.49 C 380.30 96.20 385.15 101.22 383.98 106.01 C 383.42 109.59 379.65 112.10 376.13 111.61 C 372.48 111.25 369.26 107.70 369.81 103.97 C 370.11 100.91 372.42 98.12 375.46 97.49 Z" />
<path fill="#ffffff" opacity="1.00" d=" M 249.29 98.37 C 253.12 96.70 257.79 99.27 258.72 103.28 C 260.46 108.25 254.91 113.54 250.02 111.97 C 247.21 111.32 244.88 108.83 244.71 105.92 C 244.23 102.73 246.33 99.49 249.29 98.37 Z" />
<path fill="#ffffff" opacity="1.00" d=" M 219.32 108.52 C 224.95 108.34 230.21 113.25 230.28 118.90 C 230.63 123.12 228.10 127.37 224.34 129.24 C 220.68 131.27 215.84 130.98 212.51 128.41 C 208.64 125.82 207.34 120.41 208.99 116.16 C 210.42 111.80 214.78 108.73 219.32 108.52 Z" />
<path fill="#ffffff" opacity="1.00" d=" M 405.26 111.37 C 412.54 108.76 420.98 115.29 420.19 122.99 C 419.81 128.89 413.90 133.52 408.11 132.83 C 402.78 132.32 398.31 127.41 398.22 122.07 C 397.91 117.52 400.86 112.77 405.26 111.37 Z" />
<path fill="#ffffff" opacity="1.00" d=" M 347.29 116.41 C 352.88 115.02 358.92 118.87 360.37 124.37 C 362.05 129.90 358.60 136.59 352.81 137.84 C 346.78 139.52 340.18 135.12 339.01 129.07 C 337.60 123.46 341.78 117.59 347.29 116.41 Z" />
<path fill="#ffffff" opacity="1.00" d=" M 274.24 118.36 C 278.90 116.59 284.46 118.82 286.98 123.01 C 289.21 126.46 289.02 131.21 286.71 134.57 C 284.16 138.56 278.96 140.69 274.37 139.45 C 269.07 138.18 265.50 132.25 266.73 126.97 C 267.42 123.01 270.42 119.57 274.24 118.36 Z" />
<path fill="#ffffff" opacity="1.00" d=" M 182.44 123.46 C 185.14 122.54 188.18 124.11 189.25 126.71 C 190.72 129.49 189.06 132.91 186.51 134.40 C 183.86 135.56 180.34 134.63 178.94 131.99 C 176.91 128.88 178.89 124.36 182.44 123.46 Z" />
<path fill="#ffffff" opacity="1.00" d=" M 441.18 126.23 C 444.00 124.97 447.78 126.19 448.95 129.14 C 450.31 131.76 449.22 135.38 446.51 136.65 C 443.83 138.25 440.10 137.16 438.58 134.48 C 436.81 131.62 438.34 127.73 441.18 126.23 Z" />
<path fill="#ffffff" opacity="1.00" d=" M 245.47 135.51 C 250.82 134.34 256.70 136.63 259.89 141.07 C 263.83 146.13 263.93 153.92 259.85 158.94 C 256.25 163.44 249.86 165.29 244.35 163.69 C 238.92 162.42 234.58 157.54 233.97 151.99 C 232.84 144.64 238.11 136.92 245.47 135.51 Z" />
<path fill="#ffffff" opacity="1.00" d=" M 376.41 136.53 C 383.45 135.39 391.10 139.96 392.95 146.94 C 394.42 151.67 393.00 157.07 389.65 160.66 C 386.20 164.38 380.80 166.16 375.83 165.16 C 370.28 164.14 365.70 159.44 364.78 153.88 C 363.00 146.21 368.41 137.50 376.41 136.53 Z" />
<path fill="#ffffff" opacity="1.00" d=" M 674.90 136.50 C 697.65 136.49 720.40 136.50 743.16 136.50 C 743.16 146.08 743.15 155.66 743.16 165.25 C 741.36 166.50 739.56 167.75 737.77 169.00 C 745.55 207.32 753.33 245.63 761.10 283.95 C 762.91 285.11 764.71 286.29 766.51 287.49 C 766.51 297.08 766.51 306.66 766.51 316.25 C 755.90 316.26 745.30 316.25 734.69 316.25 C 732.03 303.09 729.42 289.91 726.73 276.75 C 714.93 276.75 703.12 276.75 691.32 276.75 C 688.65 289.91 686.02 303.09 683.35 316.25 C 672.75 316.25 662.15 316.25 651.55 316.25 C 651.55 306.65 651.52 297.05 651.56 287.46 C 653.34 286.28 655.13 285.11 656.93 283.95 C 664.72 245.64 672.50 207.32 680.28 169.01 C 678.48 167.76 676.69 166.50 674.90 165.24 C 674.89 155.66 674.90 146.08 674.90 136.50 M 697.98 244.50 C 705.34 244.49 712.69 244.50 720.05 244.50 C 716.38 226.18 712.72 207.86 709.03 189.55 C 705.31 207.86 701.67 226.18 697.98 244.50 Z" />
<path fill="#ffffff" opacity="1.00" d=" M 535.30 165.27 C 535.28 155.68 535.29 146.09 535.30 136.50 C 562.66 136.50 590.02 136.50 617.38 136.50 C 625.08 144.23 632.79 151.97 640.48 159.72 C 641.81 160.74 641.08 162.60 641.30 164.01 C 641.23 185.86 641.34 207.71 641.24 229.57 C 633.24 237.41 625.34 245.37 617.38 253.26 C 602.59 253.24 587.81 253.26 573.02 253.25 C 573.03 263.49 573.01 273.72 573.02 283.96 C 574.81 285.11 576.59 286.27 578.38 287.43 C 578.44 297.03 578.39 306.64 578.41 316.25 C 564.03 316.25 549.67 316.25 535.30 316.25 C 535.28 306.67 535.29 297.09 535.29 287.51 C 537.08 286.30 538.87 285.11 540.68 283.94 C 540.69 245.64 540.67 207.33 540.69 169.03 C 538.90 167.76 537.10 166.51 535.30 165.27 M 573.02 169.00 C 573.01 186.33 573.04 203.66 573.00 220.98 C 583.37 221.01 593.73 220.99 604.10 221.00 C 605.71 219.41 607.33 217.83 608.95 216.24 C 608.94 202.08 608.94 187.92 608.95 173.75 C 607.32 172.17 605.71 170.58 604.09 169.00 C 593.74 169.01 583.38 169.00 573.02 169.00 Z" />
<path fill="#ffffff" opacity="1.00" d=" M 776.80 160.43 C 784.80 152.50 792.71 144.48 800.65 136.50 C 819.47 136.51 838.28 136.49 857.10 136.50 C 865.05 144.50 873.00 152.50 880.96 160.49 C 881.00 171.66 880.96 182.83 880.97 194.00 C 870.19 193.99 859.41 194.00 848.63 193.99 C 848.56 187.31 848.75 180.63 848.56 173.95 C 847.27 172.05 845.31 170.67 843.74 169.00 C 833.81 169.00 823.89 169.01 813.97 169.00 C 812.34 170.58 810.72 172.17 809.11 173.76 C 809.12 208.83 809.12 243.90 809.11 278.96 C 810.73 280.64 812.36 282.31 813.99 283.99 C 823.90 284.00 833.80 283.99 843.72 284.00 C 845.33 282.27 847.22 280.76 848.57 278.80 C 848.72 266.70 848.58 254.60 848.63 242.50 C 845.08 242.43 841.52 242.66 837.98 242.41 C 835.96 241.53 834.25 240.09 832.43 238.89 C 832.50 229.35 832.44 219.80 832.46 210.25 C 848.63 210.24 864.80 210.25 880.97 210.24 C 880.98 237.58 880.97 264.91 880.98 292.24 C 873.02 300.25 865.06 308.26 857.08 316.25 C 838.27 316.25 819.47 316.24 800.66 316.26 C 792.69 308.26 784.73 300.25 776.77 292.23 C 776.80 248.30 776.74 204.36 776.80 160.43 Z" />
<path fill="#ffffff" opacity="1.00" d=" M 896.38 165.25 C 896.35 155.67 896.37 146.08 896.36 136.50 C 927.50 136.50 958.64 136.49 989.78 136.50 C 989.77 149.09 989.79 161.67 989.77 174.25 C 980.19 174.26 970.62 174.24 961.05 174.26 C 959.86 172.53 958.68 170.80 957.55 169.05 C 949.73 168.94 941.91 169.03 934.09 169.00 C 934.09 182.75 934.08 196.50 934.09 210.25 C 947.86 210.24 961.63 210.25 975.40 210.25 C 975.41 220.99 975.40 231.74 975.41 242.49 C 961.63 242.51 947.86 242.49 934.08 242.51 C 934.10 256.33 934.08 270.16 934.09 283.99 C 941.89 283.97 949.69 284.06 957.49 283.95 C 958.61 282.10 959.81 280.28 961.03 278.49 C 970.61 278.50 980.19 278.49 989.78 278.50 C 989.78 291.08 989.79 303.67 989.78 316.25 C 958.64 316.25 927.51 316.25 896.37 316.25 C 896.36 306.67 896.37 297.08 896.37 287.50 C 898.14 286.30 899.93 285.12 901.75 283.97 C 901.76 245.66 901.74 207.35 901.76 169.04 C 899.97 167.76 898.17 166.51 896.38 165.25 Z" />
<path fill="#ffffff" opacity="1.00" d=" M 1005.17 136.51 C 1032.54 136.49 1059.91 136.51 1087.29 136.50 C 1095.23 144.54 1103.25 152.51 1111.18 160.57 C 1111.13 183.11 1111.18 205.65 1111.16 228.18 C 1111.50 229.62 1110.08 230.40 1109.33 231.34 C 1101.95 238.61 1094.63 245.95 1087.28 253.25 C 1072.49 253.25 1057.69 253.25 1042.90 253.25 C 1042.90 263.49 1042.90 273.73 1042.91 283.98 C 1044.70 285.12 1046.49 286.28 1048.28 287.46 C 1048.30 297.05 1048.28 306.65 1048.29 316.25 C 1033.92 316.25 1019.55 316.26 1005.18 316.25 C 1005.17 306.66 1005.16 297.07 1005.19 287.48 C 1006.97 286.29 1008.76 285.10 1010.57 283.93 C 1010.56 245.65 1010.54 207.36 1010.58 169.07 C 1008.79 167.76 1006.97 166.50 1005.17 165.22 C 1005.17 155.65 1005.17 146.08 1005.17 136.51 M 1042.90 169.00 C 1042.90 186.33 1042.90 203.66 1042.90 221.00 C 1053.24 221.00 1063.58 220.99 1073.92 221.00 C 1075.57 219.43 1077.20 217.84 1078.83 216.24 C 1078.82 202.08 1078.81 187.92 1078.83 173.76 C 1077.20 172.16 1075.56 170.57 1073.93 168.99 C 1063.58 169.00 1053.24 168.99 1042.90 169.00 Z" />
<path fill="#ffffff" opacity="1.00" d=" M 1126.56 136.50 C 1140.93 136.50 1155.30 136.50 1169.67 136.50 C 1169.66 146.09 1169.68 155.67 1169.66 165.26 C 1167.85 166.51 1166.05 167.76 1164.27 169.03 C 1164.29 207.34 1164.27 245.65 1164.29 283.96 C 1166.09 285.12 1167.88 286.30 1169.67 287.50 C 1169.67 297.09 1169.67 306.67 1169.67 316.25 C 1155.30 316.25 1140.93 316.25 1126.56 316.25 C 1126.57 306.65 1126.53 297.05 1126.58 287.45 C 1128.35 286.28 1130.14 285.11 1131.94 283.96 C 1131.95 245.65 1131.93 207.35 1131.95 169.04 C 1130.16 167.75 1128.36 166.50 1126.56 165.25 C 1126.55 155.67 1126.56 146.08 1126.56 136.50 Z" />
<path fill="#ffffff" opacity="1.00" d=" M 1185.06 136.51 C 1199.43 136.49 1213.80 136.50 1228.18 136.50 C 1228.18 146.08 1228.18 155.66 1228.18 165.24 C 1226.38 166.49 1224.58 167.75 1222.80 169.00 C 1222.79 207.33 1222.79 245.66 1222.80 283.99 C 1228.78 284.00 1234.77 283.99 1240.76 284.00 C 1241.95 282.16 1243.15 280.32 1244.37 278.49 C 1253.94 278.51 1263.51 278.49 1273.09 278.50 C 1273.08 291.08 1273.10 303.67 1273.08 316.25 C 1243.74 316.25 1214.41 316.25 1185.07 316.25 C 1185.07 306.65 1185.04 297.05 1185.09 287.46 C 1186.86 286.28 1188.64 285.11 1190.45 283.97 C 1190.46 245.65 1190.45 207.32 1190.45 169.00 C 1188.65 167.74 1186.85 166.49 1185.07 165.23 C 1185.06 155.66 1185.07 146.08 1185.06 136.51 Z" />
<path fill="#ffffff" opacity="1.00" d=" M 1288.49 160.50 C 1296.41 152.47 1304.39 144.51 1312.34 136.50 C 1331.77 136.50 1351.21 136.49 1370.64 136.51 C 1378.58 144.52 1386.56 152.51 1394.49 160.55 C 1394.46 204.45 1394.48 248.35 1394.48 292.25 C 1386.49 300.23 1378.55 308.25 1370.58 316.25 C 1351.18 316.26 1331.77 316.25 1312.37 316.25 C 1304.41 308.26 1296.48 300.24 1288.50 292.27 C 1288.47 248.35 1288.49 204.42 1288.49 160.50 M 1320.82 173.76 C 1320.84 208.84 1320.83 243.92 1320.82 279.01 C 1322.42 280.68 1324.06 282.35 1325.70 284.00 C 1336.22 283.99 1346.75 284.00 1357.28 284.00 C 1358.89 282.33 1360.52 280.68 1362.14 279.02 C 1362.13 243.93 1362.14 208.84 1362.14 173.75 C 1360.52 172.15 1358.89 170.57 1357.26 168.99 C 1346.74 169.00 1336.22 169.00 1325.70 168.99 C 1324.06 170.57 1322.42 172.16 1320.82 173.76 Z" />
<path fill="#ffffff" opacity="1.00" d=" M 1409.87 136.50 C 1445.80 136.50 1481.73 136.50 1517.66 136.50 C 1517.66 149.09 1517.66 161.67 1517.66 174.25 C 1508.08 174.26 1498.50 174.25 1488.92 174.25 C 1487.71 172.51 1486.51 170.76 1485.34 169.00 C 1483.52 169.00 1481.72 169.00 1479.93 169.00 C 1479.93 207.33 1479.93 245.65 1479.94 283.98 C 1481.73 285.12 1483.52 286.28 1485.31 287.46 C 1485.33 297.06 1485.32 306.65 1485.32 316.25 C 1470.95 316.25 1456.58 316.26 1442.21 316.25 C 1442.21 306.66 1442.19 297.07 1442.22 287.48 C 1443.99 286.29 1445.78 285.11 1447.59 283.95 C 1447.60 245.63 1447.59 207.32 1447.60 169.00 C 1445.79 169.00 1443.99 169.00 1442.22 169.00 C 1441.00 170.75 1439.80 172.50 1438.60 174.25 C 1429.02 174.25 1419.45 174.25 1409.88 174.25 C 1409.86 161.67 1409.87 149.08 1409.87 136.50 Z" />
<path fill="#ffffff" opacity="1.00" d=" M 312.44 142.55 C 318.66 142.12 324.80 146.24 326.85 152.11 C 328.76 157.11 327.75 163.16 324.03 167.07 C 318.61 173.00 308.22 173.05 302.69 167.25 C 298.74 163.30 297.66 156.94 299.86 151.84 C 301.82 146.67 306.90 142.88 312.44 142.55 Z" />
<path fill="#ffffff" opacity="1.00" d=" M 199.24 145.22 C 203.78 142.92 209.51 146.99 209.06 151.97 C 209.18 156.37 204.45 160.13 200.21 158.69 C 197.17 157.97 194.99 155.10 194.69 152.06 C 194.75 149.14 196.45 146.27 199.24 145.22 Z" />
<path fill="#ffffff" opacity="1.00" d=" M 421.39 147.47 C 425.62 146.09 430.87 149.39 430.79 153.99 C 431.29 158.49 426.63 162.20 422.36 161.47 C 419.69 160.85 417.30 158.77 416.73 156.03 C 415.76 152.56 417.99 148.60 421.39 147.47 Z" />
<path fill="#ffffff" opacity="1.00" d=" M 340.28 163.42 C 348.59 160.51 358.65 164.68 362.47 172.60 C 366.64 180.54 364.03 191.47 356.39 196.33 C 351.45 199.91 344.79 200.64 339.07 198.72 C 331.50 196.05 326.32 187.88 327.15 179.89 C 327.77 172.42 333.26 165.87 340.28 163.42 Z" />
<path fill="#ffffff" opacity="1.00" d=" M 275.37 164.50 C 282.10 163.27 289.22 166.26 293.33 171.66 C 298.14 177.92 298.70 187.42 293.89 193.83 C 289.78 199.63 282.03 202.82 275.07 201.18 C 266.34 199.55 259.49 190.91 259.91 182.04 C 260.16 173.56 266.93 165.74 275.37 164.50 Z" />
<path fill="#ffffff" opacity="1.00" d=" M 221.36 168.55 C 225.71 167.01 231.01 168.63 233.70 172.41 C 235.74 175.10 235.99 178.84 235.06 182.00 C 233.46 187.59 226.92 191.36 221.32 189.52 C 216.49 188.13 213.15 182.98 213.63 178.01 C 214.05 173.70 217.24 169.84 221.36 168.55 Z" />
<path fill="#ffffff" opacity="1.00" d=" M 397.30 169.32 C 402.92 167.97 409.10 171.70 410.58 177.29 C 412.70 183.89 406.81 191.59 399.84 191.04 C 394.05 191.00 389.05 185.74 388.97 180.00 C 388.63 175.00 392.40 170.27 397.30 169.32 Z" />
<path fill="#ffffff" opacity="1.00" d=" M 308.32 195.30 C 318.48 192.79 329.85 198.42 333.91 208.08 C 338.74 218.30 334.25 232.03 323.89 236.87 C 318.00 239.97 310.75 239.87 304.73 237.20 C 297.57 233.63 292.03 226.45 291.49 218.33 C 290.53 207.93 298.15 197.58 308.32 195.30 Z" />
<path fill="#ffffff" opacity="1.00" d=" M 247.50 203.49 C 252.87 202.24 258.92 204.34 262.10 208.91 C 267.24 215.83 264.89 227.12 256.91 230.80 C 248.92 234.86 238.09 229.75 236.22 220.98 C 234.06 213.28 239.81 204.96 247.50 203.49 Z" />
<path fill="#ffffff" opacity="1.00" d=" M 368.43 203.59 C 374.33 202.05 381.03 204.50 384.48 209.54 C 388.08 214.58 387.77 221.98 383.75 226.69 C 379.24 232.45 370.19 234.01 364.15 229.77 C 357.45 225.32 356.04 215.22 360.76 208.85 C 362.63 206.29 365.33 204.35 368.43 203.59 Z" />
<path fill="#ffffff" opacity="1.00" d=" M 272.38 229.51 C 275.94 228.94 279.61 229.62 282.95 230.92 C 290.48 234.24 295.33 242.95 293.84 251.11 C 292.60 257.86 287.51 263.96 280.78 265.73 C 270.63 268.85 258.58 261.73 257.13 251.04 C 255.29 241.24 262.72 231.26 272.38 229.51 Z" />
<path fill="#ffffff" opacity="1.00" d=" M 339.32 235.53 C 346.43 232.90 354.97 235.42 359.59 241.41 C 364.46 247.16 365.11 255.87 361.45 262.41 C 358.35 268.31 351.75 271.66 345.24 271.95 C 336.53 271.55 328.15 264.92 326.88 256.09 C 325.27 247.35 331.25 238.59 339.32 235.53 Z" />
<path fill="#ffffff" opacity="1.00" d=" M 220.39 240.47 C 226.53 238.06 233.87 242.61 234.97 248.98 C 236.71 255.12 231.40 261.80 225.10 261.78 C 219.96 262.23 214.95 258.55 213.61 253.62 C 211.99 248.35 215.24 242.27 220.39 240.47 Z" />
<path fill="#ffffff" opacity="1.00" d=" M 396.27 242.26 C 402.57 239.74 410.05 244.74 410.54 251.40 C 411.31 257.28 406.47 263.07 400.60 263.56 C 394.91 264.38 388.75 259.88 388.68 253.94 C 388.12 248.89 391.54 243.91 396.27 242.26 Z" />
<path fill="#ffffff" opacity="1.00" d=" M 308.39 264.58 C 313.04 264.55 317.77 266.62 320.51 270.45 C 324.76 276.13 323.71 284.77 318.57 289.56 C 314.02 294.25 306.12 294.98 300.76 291.27 C 294.55 287.30 292.21 278.36 295.84 271.92 C 298.26 267.39 303.31 264.63 308.39 264.58 Z" />
<path fill="#ffffff" opacity="1.00" d=" M 244.23 266.38 C 250.87 264.88 258.64 268.47 260.96 275.05 C 263.55 281.64 260.62 289.93 254.33 293.25 C 249.55 296.04 243.15 295.65 238.80 292.22 C 233.27 288.25 231.24 280.23 234.18 274.10 C 235.99 270.05 239.96 267.29 244.23 266.38 Z" />
<path fill="#ffffff" opacity="1.00" d=" M 373.34 267.49 C 380.03 265.31 387.99 268.64 391.03 275.00 C 393.89 280.47 392.66 287.81 387.95 291.88 C 382.79 296.82 373.88 297.35 368.45 292.55 C 362.70 287.72 361.88 278.36 366.40 272.44 C 368.08 270.07 370.58 268.36 373.34 267.49 Z" />
<path fill="#ffffff" opacity="1.00" d=" M 197.39 271.48 C 200.36 269.63 204.78 270.21 206.73 273.27 C 209.14 276.26 208.42 281.09 205.32 283.33 C 201.73 286.39 195.52 284.25 194.23 279.83 C 193.04 276.74 194.57 273.08 197.39 271.48 Z" />
<path fill="#ffffff" opacity="1.00" d=" M 419.36 272.55 C 424.41 269.42 431.68 275.07 429.71 280.74 C 428.51 285.65 421.46 287.91 417.89 284.09 C 414.38 281.00 415.19 274.68 419.36 272.55 Z" />
<path fill="#ffffff" opacity="1.00" d=" M 272.35 291.63 C 278.79 289.48 286.31 294.29 287.02 301.03 C 287.89 306.64 283.50 312.20 277.96 313.01 C 271.52 314.25 264.93 308.53 265.11 302.00 C 264.97 297.44 268.00 293.02 272.35 291.63 Z" />
<path fill="#ffffff" opacity="1.00" d=" M 348.40 293.49 C 354.11 293.14 359.40 298.19 359.29 303.91 C 359.68 309.74 354.77 315.19 348.96 315.53 C 343.31 316.00 337.80 311.41 337.37 305.73 C 336.74 299.51 342.13 293.51 348.40 293.49 Z" />
<path fill="#ffffff" opacity="1.00" d=" M 180.38 294.55 C 183.98 292.71 188.68 296.02 188.29 300.00 C 188.45 302.95 185.84 305.68 182.92 305.76 C 180.13 305.93 177.32 303.90 176.86 301.10 C 176.21 298.47 177.80 295.43 180.38 294.55 Z" />
<path fill="#ffffff" opacity="1.00" d=" M 441.36 296.27 C 443.84 295.83 446.52 297.19 447.59 299.48 C 449.33 302.91 446.76 307.59 442.88 307.87 C 439.32 308.32 436.10 304.87 436.48 301.38 C 436.58 298.73 438.91 296.79 441.36 296.27 Z" />
<path fill="#ffffff" opacity="1.00" d=" M 214.44 299.55 C 220.06 297.87 226.56 301.33 228.22 306.97 C 230.33 312.82 226.15 319.85 220.07 320.96 C 213.51 322.39 206.62 316.69 206.72 309.98 C 206.34 305.17 209.92 300.81 214.44 299.55 Z" />
<path fill="#ffffff" opacity="1.00" d=" M 405.25 300.31 C 411.43 298.63 418.42 303.74 418.60 310.17 C 419.08 316.51 413.25 322.33 406.93 322.04 C 401.82 322.18 397.23 317.84 396.73 312.82 C 395.77 307.24 399.78 301.55 405.25 300.31 Z" />
<path fill="#ffffff" opacity="1.00" d=" M 247.45 318.60 C 251.41 317.07 256.39 319.81 256.95 324.07 C 257.66 328.01 254.58 332.18 250.56 332.50 C 246.41 333.01 242.51 329.18 242.71 325.06 C 242.66 322.15 244.79 319.55 247.45 318.60 Z" />
<path fill="#ffffff" opacity="1.00" d=" M 371.42 321.53 C 374.99 319.34 380.31 321.09 381.75 325.06 C 383.73 329.47 379.83 335.15 375.00 334.87 C 370.90 335.03 367.40 330.95 367.97 326.94 C 368.00 324.68 369.52 322.64 371.42 321.53 Z" />
<path fill="#ffffff" opacity="1.00" d=" M 430.36 328.47 C 435.44 326.22 441.76 331.60 440.04 336.99 C 438.95 341.82 432.28 343.69 428.77 340.28 C 424.94 337.20 425.49 330.18 430.36 328.47 Z" />
<path fill="#ffffff" opacity="1.00" d=" M 191.28 329.38 C 194.55 327.72 198.99 329.40 200.26 332.86 C 202.16 337.15 198.68 342.62 194.00 342.79 C 190.55 343.11 187.22 340.46 186.78 337.03 C 186.24 333.82 188.25 330.49 191.28 329.38 Z" />
<path fill="#ffffff" opacity="1.00" d=" M 224.40 339.52 C 227.06 338.13 230.65 339.50 231.87 342.20 C 233.50 345.03 232.04 349.00 229.05 350.24 C 225.87 351.81 221.56 349.43 221.04 345.95 C 220.48 343.38 221.99 340.53 224.40 339.52 Z" />
<path fill="#ffffff" opacity="1.00" d=" M 396.39 340.50 C 400.38 339.64 404.54 343.96 402.95 347.89 C 402.12 351.03 398.34 352.92 395.35 351.66 C 392.10 350.56 390.41 346.27 392.21 343.30 C 393.17 341.91 394.65 340.70 396.39 340.50 Z" />
</g>
</svg>
